<svg width="168" height="176" viewBox="0 0 168 176" fill="none" xmlns="http://www.w3.org/2000/svg">
<g filter="url(#filter0_d_191_20)">
<path d="M120.228 47.4323L117.446 50.176L120.194 47.3884L120.228 47.4323Z" fill="#084B82"/>
</g>
<path d="M122.182 68.6787L122.189 68.6857L114.385 76.4798L112.158 78.7047L109.559 81.2374L104.865 76.4168L95.2827 66.5937H72.6639L65.8902 59.8281H98.0006V59.8631L98.0987 59.7792L109.657 71.6312L114.182 67.1115L100.41 35.0395H60.5945L60.7976 34.7527L62.1286 32.9266L65.3368 28.4908L65.5119 28.3019L65.5399 28.2739H113.04L107.611 34.6477L122.217 68.6577L122.182 68.6787Z" fill="#084B82"/>
<path d="M117.048 100.835V128.227H44.6919V128.22L51.472 121.499L64.1619 108.927L68.9627 113.679L61.0736 121.499H110.254V103.625L78.8311 72.4761H88.4327L117.048 100.835Z" fill="#084B82"/>
<path d="M94.7847 44.2026H99.5554V49.7777L94.7847 44.2026Z" fill="#084B82"/>
<path d="M102.571 22.6986H68.8165L57.4138 0L71.5521 6.98524V15.7134H79.9925V8.56539H91.2889V15.7134H99.7293V6.98524L113.868 0L102.465 22.6986H68.7102H102.571Z" fill="#E7A800"/>
<path d="M103.929 107.482V117.077L44.6919 57.4168L48.5813 51.7496L54.0195 43.8169L58.5201 37.2589L58.6867 37.0625L58.7145 37.0344H66.8197L62.2219 43.8169H62.1872L53.4083 56.6242L103.929 107.482Z" fill="#084B82"/>
<path d="M83.6532 109.213L83.6532 118.67L52.2458 87.3277L52.2597 87.3138V72.0781H52.329L58.9567 78.6867V84.5626L83.6532 109.213Z" fill="#084B82"/>
<path d="M22.8907 173.071C22.5817 173.405 22.0944 173.75 21.4288 174.107C20.7633 174.44 19.9907 174.75 19.1112 175.036C18.2555 175.321 17.376 175.548 16.4728 175.714C15.5695 175.905 14.7138 176 13.9056 176C11.7663 176 9.84086 175.69 8.12941 175.071C6.41795 174.429 4.95609 173.548 3.74381 172.428C2.53153 171.286 1.60449 169.94 0.962693 168.393C0.320898 166.845 0 165.155 0 163.321C0 160.917 0.356553 158.833 1.06966 157.071C1.80654 155.286 2.793 153.809 4.02905 152.643C5.28887 151.452 6.72697 150.571 8.34334 150C9.98349 149.428 11.6949 149.143 13.4777 149.143C15.1654 149.143 16.7105 149.333 18.1129 149.714C19.5153 150.071 20.7038 150.524 21.6784 151.071L20.0026 155.893C19.5748 155.655 19.0043 155.416 18.2912 155.178C17.5781 154.94 16.8531 154.75 16.1162 154.607C15.3793 154.44 14.7256 154.357 14.1552 154.357C12.7289 154.357 11.4691 154.536 10.3757 154.893C9.28226 155.25 8.35523 155.786 7.59458 156.5C6.8577 157.214 6.2991 158.107 5.91878 159.178C5.53846 160.226 5.3483 161.452 5.3483 162.857C5.3483 164.095 5.56223 165.214 5.99009 166.214C6.41795 167.19 7.01221 168.024 7.77286 168.714C8.55727 169.405 9.47243 169.928 10.5183 170.286C11.588 170.643 12.7646 170.821 14.0482 170.821C14.7851 170.821 15.4625 170.774 16.0805 170.678C16.6986 170.559 17.2215 170.381 17.6494 170.143V166.964H13.1212V161.964H22.8907V173.071Z" fill="#E7A800"/>
<path d="M22.2389 175.714L34.0764 148.393H34.3617L46.1992 175.714H40.2092L32.6502 156.5L36.394 153.928L27.3376 175.714H22.2389ZM30.3326 166.214H38.2125L40.0309 170.571H28.7281L30.3326 166.214Z" fill="#E7A800"/>
<path d="M46.4591 175.714V148.357H46.4948L61.0778 169.071L58.8672 168.571L73.4146 148.357H73.4859V175.714H68.3158V160.036L68.6367 162.714L59.7586 175.357H59.6873L50.5595 162.714L51.4509 160.25V175.714H46.4591Z" fill="#E7A800"/>
<path d="M84.405 149.428C87.1386 149.428 89.3136 149.988 90.9299 151.107C92.5463 152.202 93.3545 153.845 93.3545 156.036C93.3545 157.655 92.9504 159.012 92.1422 160.107C91.3578 161.178 90.2763 161.988 88.8976 162.536C87.5427 163.059 85.9857 163.321 84.2267 163.321L83.4067 160.536C85.5697 160.536 87.4833 160.833 89.1472 161.428C90.8349 162.024 92.166 162.881 93.1406 164C94.1151 165.095 94.6024 166.417 94.6024 167.964C94.6024 169.393 94.341 170.607 93.818 171.607C93.3188 172.583 92.6295 173.381 91.75 174C90.8943 174.595 89.9197 175.036 88.8263 175.321C87.7328 175.583 86.6038 175.714 85.439 175.714H76.7035V149.428H84.405ZM85.0112 160.178C86.0333 160.178 86.782 159.869 87.2574 159.25C87.7566 158.631 88.0062 157.928 88.0062 157.143C88.0062 156.238 87.6972 155.559 87.0792 155.107C86.4849 154.655 85.6767 154.428 84.6546 154.428H81.8735V160.178H85.0112ZM85.1894 170.893C85.9501 170.893 86.6394 170.798 87.2574 170.607C87.8755 170.393 88.3627 170.071 88.7193 169.643C89.0759 169.19 89.2541 168.631 89.2541 167.964C89.2541 167.202 89.0402 166.631 88.6123 166.25C88.1845 165.845 87.6259 165.571 86.9365 165.428C86.271 165.262 85.5698 165.178 84.8329 165.178H81.8735V170.893H85.1894Z" fill="#E7A800"/>
<path d="M96.2234 149.428H101.393V175.714H96.2234V149.428Z" fill="#E7A800"/>
<path d="M102.818 149.428H120.503V154.428H114.121V175.714H108.951V154.428H102.818V149.428Z" fill="#E7A800"/>
<path d="M119.417 162.607C119.417 160.797 119.762 159.083 120.451 157.464C121.141 155.845 122.092 154.416 123.304 153.178C124.54 151.916 125.966 150.928 127.582 150.214C129.199 149.5 130.934 149.143 132.788 149.143C134.618 149.143 136.342 149.5 137.958 150.214C139.575 150.928 141.001 151.916 142.237 153.178C143.497 154.416 144.471 155.845 145.161 157.464C145.874 159.083 146.23 160.797 146.23 162.607C146.23 164.464 145.874 166.202 145.161 167.821C144.471 169.44 143.497 170.869 142.237 172.107C141.001 173.321 139.575 174.274 137.958 174.964C136.342 175.655 134.618 176 132.788 176C130.934 176 129.199 175.655 127.582 174.964C125.966 174.274 124.54 173.321 123.304 172.107C122.092 170.869 121.141 169.44 120.451 167.821C119.762 166.202 119.417 164.464 119.417 162.607ZM124.766 162.607C124.766 163.774 124.968 164.869 125.372 165.893C125.8 166.893 126.382 167.786 127.119 168.571C127.88 169.333 128.747 169.928 129.722 170.357C130.72 170.786 131.802 171 132.966 171C134.084 171 135.118 170.786 136.068 170.357C137.043 169.928 137.887 169.333 138.6 168.571C139.313 167.786 139.872 166.893 140.276 165.893C140.68 164.869 140.882 163.774 140.882 162.607C140.882 161.417 140.668 160.309 140.24 159.286C139.836 158.262 139.266 157.369 138.529 156.607C137.816 155.821 136.972 155.214 135.997 154.786C135.023 154.357 133.965 154.143 132.824 154.143C131.683 154.143 130.625 154.357 129.65 154.786C128.676 155.214 127.82 155.821 127.083 156.607C126.346 157.369 125.776 158.262 125.372 159.286C124.968 160.309 124.766 161.417 124.766 162.607Z" fill="#E7A800"/>
<path d="M155.77 149.428C157.41 149.428 158.872 149.643 160.156 150.071C161.439 150.476 162.509 151.071 163.365 151.857C164.244 152.619 164.91 153.547 165.361 154.643C165.813 155.714 166.039 156.928 166.039 158.286C166.039 159.357 165.873 160.428 165.54 161.5C165.231 162.571 164.708 163.547 163.971 164.428C163.258 165.309 162.307 166.024 161.119 166.571C159.93 167.095 158.456 167.357 156.697 167.357H152.989V175.714H147.819V149.428H155.77ZM156.662 162.357C157.446 162.357 158.1 162.226 158.623 161.964C159.146 161.702 159.55 161.369 159.835 160.964C160.144 160.559 160.358 160.143 160.477 159.714C160.619 159.262 160.691 158.845 160.691 158.464C160.691 158.178 160.643 157.821 160.548 157.393C160.477 156.94 160.31 156.488 160.049 156.036C159.787 155.583 159.383 155.202 158.837 154.893C158.314 154.583 157.601 154.428 156.697 154.428H152.989V162.357H156.662ZM161.511 165.571L168 175.714H161.974L155.342 165.714L161.511 165.571Z" fill="#E7A800"/>
<defs>
<filter id="filter0_d_191_20" x="103.446" y="27.3884" width="42.783" height="42.7876" filterUnits="userSpaceOnUse" color-interpolation-filters="sRGB">
<feFlood flood-opacity="0" result="BackgroundImageFix"/>
<feColorMatrix in="SourceAlpha" type="matrix" values="0 0 0 0 0 0 0 0 0 0 0 0 0 0 0 0 0 0 127 0" result="hardAlpha"/>
<feOffset dx="6"/>
<feGaussianBlur stdDeviation="10"/>
<feComposite in2="hardAlpha" operator="out"/>
<feColorMatrix type="matrix" values="0 0 0 0 0 0 0 0 0 0 0 0 0 0 0 0 0 0 0.3 0"/>
<feBlend mode="normal" in2="BackgroundImageFix" result="effect1_dropShadow_191_20"/>
<feBlend mode="normal" in="SourceGraphic" in2="effect1_dropShadow_191_20" result="shape"/>
</filter>
</defs>
</svg>
